<svg width="52" height="17" viewBox="0 0 52 17" fill="none" xmlns="http://www.w3.org/2000/svg">
<path d="M5.152 12.7762C4.192 12.7762 3.37067 12.6322 2.688 12.3442C2.00533 12.0562 1.488 11.6775 1.136 11.2082C0.784 10.7389 0.597333 10.2269 0.576 9.67221C0.576 9.58688 0.608 9.51221 0.672 9.44821C0.736 9.37354 0.816 9.33621 0.912 9.33621H2.368C2.48533 9.33621 2.58133 9.36288 2.656 9.41621C2.73067 9.46954 2.8 9.54421 2.864 9.64021C2.97067 10.0029 3.21067 10.3069 3.584 10.5522C3.968 10.7975 4.49067 10.9202 5.152 10.9202C5.89867 10.9202 6.45867 10.7975 6.832 10.5522C7.216 10.2962 7.408 9.94954 7.408 9.51221C7.408 9.22421 7.312 8.98421 7.12 8.79221C6.928 8.60021 6.63467 8.43488 6.24 8.29621C5.856 8.14688 5.28 7.97088 4.512 7.76821C3.25333 7.46954 2.33067 7.07488 1.744 6.58421C1.15733 6.09354 0.864 5.38954 0.864 4.47221C0.864 3.85354 1.03467 3.30421 1.376 2.82421C1.71733 2.33354 2.20267 1.94954 2.832 1.67221C3.472 1.39488 4.21333 1.25621 5.056 1.25621C5.94133 1.25621 6.704 1.41088 7.344 1.72021C7.99467 2.02954 8.48533 2.41888 8.816 2.88821C9.15733 3.34688 9.33867 3.80554 9.36 4.26421C9.36 4.34954 9.328 4.42954 9.264 4.50421C9.2 4.56821 9.12 4.60021 9.024 4.60021H7.504C7.26933 4.60021 7.10933 4.50421 7.024 4.31221C6.97067 3.97088 6.76267 3.68821 6.4 3.46421C6.03733 3.22954 5.58933 3.11221 5.056 3.11221C4.46933 3.11221 4.00533 3.22421 3.664 3.44821C3.33333 3.67221 3.168 3.99754 3.168 4.42421C3.168 4.71221 3.25333 4.95221 3.424 5.14421C3.59467 5.33621 3.86133 5.50688 4.224 5.65621C4.58667 5.79488 5.11467 5.95488 5.808 6.13621C6.75733 6.34954 7.50933 6.58954 8.064 6.85621C8.62933 7.12288 9.04533 7.45888 9.312 7.86421C9.57867 8.26954 9.712 8.78688 9.712 9.41621C9.712 10.1095 9.52 10.7122 9.136 11.2242C8.76267 11.7255 8.22933 12.1095 7.536 12.3762C6.85333 12.6429 6.05867 12.7762 5.152 12.7762ZM11.6573 2.93621C11.5506 2.93621 11.4599 2.89888 11.3853 2.82421C11.3106 2.74954 11.2733 2.65888 11.2733 2.55221V1.38421C11.2733 1.26688 11.3106 1.17088 11.3853 1.09621C11.4599 1.02154 11.5506 0.98421 11.6573 0.98421H13.1293C13.2466 0.98421 13.3426 1.02154 13.4173 1.09621C13.4919 1.17088 13.5293 1.26688 13.5293 1.38421V2.55221C13.5293 2.65888 13.4866 2.74954 13.4013 2.82421C13.3266 2.89888 13.2359 2.93621 13.1293 2.93621H11.6573ZM11.7213 12.6162C11.6146 12.6162 11.5239 12.5789 11.4493 12.5042C11.3746 12.4295 11.3372 12.3389 11.3372 12.2322V4.68021C11.3372 4.56288 11.3746 4.47221 11.4493 4.40821C11.5239 4.33354 11.6146 4.29621 11.7213 4.29621H13.0813C13.1879 4.29621 13.2786 4.33354 13.3533 4.40821C13.4279 4.48288 13.4653 4.57354 13.4653 4.68021V12.2322C13.4653 12.3389 13.4279 12.4295 13.3533 12.5042C13.2786 12.5789 13.1879 12.6162 13.0813 12.6162H11.7213ZM19.3316 16.1362C18.3823 16.1362 17.6143 15.9762 17.0276 15.6562C16.441 15.3469 16.025 14.9895 15.7796 14.5842C15.5343 14.1789 15.4116 13.8322 15.4116 13.5442C15.4116 13.4375 15.449 13.3469 15.5236 13.2722C15.5983 13.2082 15.689 13.1762 15.7956 13.1762H17.2196C17.3156 13.1762 17.3956 13.1975 17.4596 13.2402C17.5343 13.2935 17.593 13.3842 17.6356 13.5122C17.753 13.7895 17.929 14.0242 18.1636 14.2162C18.3983 14.4189 18.761 14.5202 19.2516 14.5202C19.8916 14.5202 20.361 14.3762 20.6596 14.0882C20.9583 13.8109 21.1076 13.3202 21.1076 12.6162V11.5282C20.5316 12.2109 19.7156 12.5522 18.6596 12.5522C17.5503 12.5522 16.713 12.2162 16.1476 11.5442C15.593 10.8722 15.2943 9.95488 15.2516 8.79221L15.2356 8.36021L15.2516 7.92821C15.2943 6.78688 15.5983 5.86954 16.1636 5.17621C16.729 4.48288 17.561 4.13621 18.6596 4.13621C19.225 4.13621 19.721 4.24288 20.1476 4.45621C20.5743 4.66954 20.9263 4.95754 21.2036 5.32021V4.69621C21.2036 4.57888 21.241 4.48288 21.3156 4.40821C21.401 4.33354 21.497 4.29621 21.6036 4.29621H22.9156C23.0223 4.29621 23.113 4.33354 23.1876 4.40821C23.2623 4.48288 23.2996 4.57888 23.2996 4.69621L23.3156 12.4082C23.3156 13.5922 22.985 14.5095 22.3236 15.1602C21.6623 15.8109 20.665 16.1362 19.3316 16.1362ZM19.2676 10.8562C19.865 10.8562 20.313 10.6642 20.6116 10.2802C20.9103 9.89621 21.0756 9.42688 21.1076 8.87221C21.1183 8.78688 21.1236 8.61621 21.1236 8.36021C21.1236 8.10421 21.1183 7.93354 21.1076 7.84821C21.0756 7.29354 20.9103 6.82421 20.6116 6.44021C20.313 6.05621 19.865 5.86421 19.2676 5.86421C18.1156 5.86421 17.5076 6.56821 17.4436 7.97621L17.4276 8.36021C17.4276 10.0242 18.041 10.8562 19.2676 10.8562ZM25.815 12.6162C25.7083 12.6162 25.6177 12.5789 25.543 12.5042C25.4683 12.4295 25.431 12.3389 25.431 12.2322V4.68021C25.431 4.56288 25.4683 4.47221 25.543 4.40821C25.6177 4.33354 25.7083 4.29621 25.815 4.29621H27.143C27.2603 4.29621 27.351 4.33354 27.415 4.40821C27.4897 4.47221 27.527 4.56288 27.527 4.68021V5.33621C28.1777 4.53621 29.0683 4.13621 30.199 4.13621C31.1803 4.13621 31.959 4.45621 32.535 5.09621C33.111 5.73621 33.399 6.61621 33.399 7.73621V12.2322C33.399 12.3389 33.3617 12.4295 33.287 12.5042C33.223 12.5789 33.1323 12.6162 33.015 12.6162H31.575C31.4683 12.6162 31.3777 12.5789 31.303 12.5042C31.2283 12.4295 31.191 12.3389 31.191 12.2322V7.83221C31.191 7.21354 31.0363 6.73354 30.727 6.39221C30.4283 6.04021 29.9963 5.86421 29.431 5.86421C28.887 5.86421 28.4497 6.04021 28.119 6.39221C27.7883 6.74421 27.623 7.22421 27.623 7.83221V12.2322C27.623 12.3389 27.5857 12.4295 27.511 12.5042C27.447 12.5789 27.3563 12.6162 27.239 12.6162H25.815ZM39.6476 12.6162C39.541 12.6162 39.4503 12.5789 39.3756 12.5042C39.301 12.4295 39.2636 12.3389 39.2636 12.2322V1.80021C39.2636 1.68288 39.301 1.59221 39.3756 1.52821C39.4503 1.45354 39.541 1.41621 39.6476 1.41621H41.1836C41.301 1.41621 41.3916 1.45354 41.4556 1.52821C41.5303 1.59221 41.5676 1.68288 41.5676 1.80021V12.2322C41.5676 12.3389 41.5303 12.4295 41.4556 12.5042C41.3916 12.5789 41.301 12.6162 41.1836 12.6162H39.6476ZM44.2525 12.6162C44.1458 12.6162 44.0552 12.5789 43.9805 12.5042C43.9058 12.4295 43.8685 12.3389 43.8685 12.2322V4.68021C43.8685 4.56288 43.9058 4.47221 43.9805 4.40821C44.0552 4.33354 44.1458 4.29621 44.2525 4.29621H45.5805C45.6978 4.29621 45.7885 4.33354 45.8525 4.40821C45.9272 4.47221 45.9645 4.56288 45.9645 4.68021V5.33621C46.6152 4.53621 47.5058 4.13621 48.6365 4.13621C49.6178 4.13621 50.3965 4.45621 50.9725 5.09621C51.5485 5.73621 51.8365 6.61621 51.8365 7.73621V12.2322C51.8365 12.3389 51.7992 12.4295 51.7245 12.5042C51.6605 12.5789 51.5698 12.6162 51.4525 12.6162H50.0125C49.9058 12.6162 49.8152 12.5789 49.7405 12.5042C49.6658 12.4295 49.6285 12.3389 49.6285 12.2322V7.83221C49.6285 7.21354 49.4738 6.73354 49.1645 6.39221C48.8658 6.04021 48.4338 5.86421 47.8685 5.86421C47.3245 5.86421 46.8872 6.04021 46.5565 6.39221C46.2258 6.74421 46.0605 7.22421 46.0605 7.83221V12.2322C46.0605 12.3389 46.0232 12.4295 45.9485 12.5042C45.8845 12.5789 45.7938 12.6162 45.6765 12.6162H44.2525Z" fill="#0B132A"/>
</svg>
